<mxfile host="app.diagrams.net" agent="Mozilla/5.0 (Macintosh; Intel Mac OS X 10_15_7) AppleWebKit/537.36 (KHTML, like Gecko) Chrome/131.0.0.0 Safari/537.36" version="26.0.6">
  <diagram name="Page-1" id="xdNjSWz6itovICBSl_zl">
    <mxGraphModel dx="954" dy="639" grid="1" gridSize="10" guides="1" tooltips="1" connect="1" arrows="1" fold="1" page="1" pageScale="1" pageWidth="850" pageHeight="1100" math="0" shadow="0">
      <root>
        <mxCell id="0" />
        <mxCell id="1" parent="0" />
        <mxCell id="OEOn04T3mQ1QmQoX2jVO-1" value="" style="image;aspect=fixed;html=1;points=[];align=center;fontSize=12;image=img/lib/azure2/networking/Bastions.svg;" vertex="1" parent="1">
          <mxGeometry x="980" y="840" width="57.99999999999999" height="68" as="geometry" />
        </mxCell>
        <mxCell id="OEOn04T3mQ1QmQoX2jVO-2" value="" style="rounded=0;whiteSpace=wrap;html=1;" vertex="1" parent="1">
          <mxGeometry x="1049" y="830" width="371" height="110" as="geometry" />
        </mxCell>
        <mxCell id="OEOn04T3mQ1QmQoX2jVO-3" value="" style="image;aspect=fixed;html=1;points=[];align=center;fontSize=12;image=img/lib/azure2/compute/Virtual_Machine.svg;" vertex="1" parent="1">
          <mxGeometry x="1090" y="840" width="69" height="64" as="geometry" />
        </mxCell>
        <mxCell id="OEOn04T3mQ1QmQoX2jVO-4" value="Network" style="rounded=0;whiteSpace=wrap;html=1;" vertex="1" parent="1">
          <mxGeometry x="1200" y="710" width="120" height="60" as="geometry" />
        </mxCell>
        <mxCell id="OEOn04T3mQ1QmQoX2jVO-5" value="Public IP" style="rounded=1;whiteSpace=wrap;html=1;" vertex="1" parent="1">
          <mxGeometry x="790" y="920" width="120" height="60" as="geometry" />
        </mxCell>
        <mxCell id="OEOn04T3mQ1QmQoX2jVO-6" value="NSG" style="rounded=1;whiteSpace=wrap;html=1;" vertex="1" parent="1">
          <mxGeometry x="890" y="780" width="120" height="60" as="geometry" />
        </mxCell>
        <mxCell id="OEOn04T3mQ1QmQoX2jVO-7" value="NAT GW" style="rounded=1;whiteSpace=wrap;html=1;" vertex="1" parent="1">
          <mxGeometry x="900" y="930" width="120" height="60" as="geometry" />
        </mxCell>
      </root>
    </mxGraphModel>
  </diagram>
</mxfile>
